# xmcd
#
# Track frame offsets: 
#        225
#        14431
#        29874
#        44496
#        62510
#        73524
#        90819
#        102836
#        119907
#        137514
#        152685
#        169588
#        186399
#
# Disc length: 2678 seconds
#
# Revision: 0
# Processed by: cddbd v1.4PL0 Copyright (c) Steve Scherf et al.
# Submitted via: ExactAudioCopy v0.95a4
#
DISCID=b10a730d
DTITLE=Creole Zydeco Farmers - Zydeco Y2K
DYEAR=2000
DGENRE=Dance
TTITLE0=Nobody Else But You
TTITLE1=Zydeco Workout
TTITLE2=Zydeco Mardi Gras
TTITLE3=Hole in the Wall
TTITLE4=These Arms of Mine
TTITLE5=Dance and Shout
TTITLE6=Pistol Packin' Mamma
TTITLE7=Dog Catcher
TTITLE8=Zydeco Strokin'
TTITLE9=I Got It
TTITLE10=Stagger Lee
TTITLE11=It's Your Body
TTITLE12=They Call Me Lazy
EXTD=
EXTT0=
EXTT1=
EXTT2=
EXTT3=
EXTT4=
EXTT5=
EXTT6=
EXTT7=
EXTT8=
EXTT9=
EXTT10=
EXTT11=
EXTT12=
PLAYORDER=
